<mxfile host="app.diagrams.net" agent="Mozilla/5.0 (Windows NT 10.0; Win64; x64; rv:136.0) Gecko/20100101 Firefox/136.0" version="26.1.3">
  <diagram name="Page-1" id="6gYNXQR_aaX2sx1cxP6w">
    <mxGraphModel dx="1750" dy="-8" grid="1" gridSize="10" guides="1" tooltips="1" connect="1" arrows="1" fold="1" page="1" pageScale="1" pageWidth="850" pageHeight="1100" math="0" shadow="0">
      <root>
        <mxCell id="0" />
        <mxCell id="1" parent="0" />
        <mxCell id="KaYgRvA0Nl-acDAz1plO-1" value="Hallgató" style="rounded=0;whiteSpace=wrap;html=1;" vertex="1" parent="1">
          <mxGeometry x="1535" y="1510" width="120" height="60" as="geometry" />
        </mxCell>
        <mxCell id="KaYgRvA0Nl-acDAz1plO-2" value="Tárgy" style="rounded=0;whiteSpace=wrap;html=1;" vertex="1" parent="1">
          <mxGeometry x="600" y="1510" width="120" height="60" as="geometry" />
        </mxCell>
        <mxCell id="KaYgRvA0Nl-acDAz1plO-3" value="Oktató" style="rounded=0;whiteSpace=wrap;html=1;" vertex="1" parent="1">
          <mxGeometry x="250" y="1510" width="120" height="60" as="geometry" />
        </mxCell>
        <mxCell id="KaYgRvA0Nl-acDAz1plO-4" value="&lt;b&gt;&lt;u&gt;Neptunkód&lt;/u&gt;&lt;/b&gt;" style="ellipse;whiteSpace=wrap;html=1;" vertex="1" parent="1">
          <mxGeometry x="170" y="1610" width="90" height="40" as="geometry" />
        </mxCell>
        <mxCell id="KaYgRvA0Nl-acDAz1plO-5" value="Név" style="ellipse;whiteSpace=wrap;html=1;" vertex="1" parent="1">
          <mxGeometry x="265" y="1610" width="90" height="40" as="geometry" />
        </mxCell>
        <mxCell id="KaYgRvA0Nl-acDAz1plO-6" value="Tanszék" style="ellipse;whiteSpace=wrap;html=1;" vertex="1" parent="1">
          <mxGeometry x="360" y="1610" width="90" height="40" as="geometry" />
        </mxCell>
        <mxCell id="KaYgRvA0Nl-acDAz1plO-7" value="&lt;b&gt;&lt;u&gt;kód PK&lt;/u&gt;&lt;/b&gt;" style="ellipse;whiteSpace=wrap;html=1;" vertex="1" parent="1">
          <mxGeometry x="463.5" y="1610" width="90" height="40" as="geometry" />
        </mxCell>
        <mxCell id="KaYgRvA0Nl-acDAz1plO-8" value="Megnevezés" style="ellipse;whiteSpace=wrap;html=1;" vertex="1" parent="1">
          <mxGeometry x="565" y="1610" width="90" height="40" as="geometry" />
        </mxCell>
        <mxCell id="KaYgRvA0Nl-acDAz1plO-9" value="Kredit" style="ellipse;whiteSpace=wrap;html=1;" vertex="1" parent="1">
          <mxGeometry x="660" y="1610" width="90" height="40" as="geometry" />
        </mxCell>
        <mxCell id="KaYgRvA0Nl-acDAz1plO-10" value="Oktató FK" style="ellipse;whiteSpace=wrap;html=1;" vertex="1" parent="1">
          <mxGeometry x="760" y="1610" width="90" height="40" as="geometry" />
        </mxCell>
        <mxCell id="KaYgRvA0Nl-acDAz1plO-11" value="h neptunkód FK" style="ellipse;whiteSpace=wrap;html=1;" vertex="1" parent="1">
          <mxGeometry x="890" y="1610" width="90" height="40" as="geometry" />
        </mxCell>
        <mxCell id="KaYgRvA0Nl-acDAz1plO-12" value="T kód FK" style="ellipse;whiteSpace=wrap;html=1;" vertex="1" parent="1">
          <mxGeometry x="1005" y="1610" width="90" height="40" as="geometry" />
        </mxCell>
        <mxCell id="KaYgRvA0Nl-acDAz1plO-13" value="Félév" style="ellipse;whiteSpace=wrap;html=1;" vertex="1" parent="1">
          <mxGeometry x="1103" y="1610" width="90" height="40" as="geometry" />
        </mxCell>
        <mxCell id="KaYgRvA0Nl-acDAz1plO-14" value="" style="endArrow=none;html=1;rounded=0;entryX=0.5;entryY=1;entryDx=0;entryDy=0;exitX=0.5;exitY=0;exitDx=0;exitDy=0;" edge="1" parent="1" source="KaYgRvA0Nl-acDAz1plO-6" target="KaYgRvA0Nl-acDAz1plO-3">
          <mxGeometry width="50" height="50" relative="1" as="geometry">
            <mxPoint x="510" y="1680" as="sourcePoint" />
            <mxPoint x="560" y="1630" as="targetPoint" />
          </mxGeometry>
        </mxCell>
        <mxCell id="KaYgRvA0Nl-acDAz1plO-15" value="" style="endArrow=none;html=1;rounded=0;entryX=0.5;entryY=1;entryDx=0;entryDy=0;exitX=0.5;exitY=0;exitDx=0;exitDy=0;" edge="1" parent="1" source="KaYgRvA0Nl-acDAz1plO-5" target="KaYgRvA0Nl-acDAz1plO-3">
          <mxGeometry width="50" height="50" relative="1" as="geometry">
            <mxPoint x="510" y="1680" as="sourcePoint" />
            <mxPoint x="560" y="1630" as="targetPoint" />
          </mxGeometry>
        </mxCell>
        <mxCell id="KaYgRvA0Nl-acDAz1plO-16" value="" style="endArrow=none;html=1;rounded=0;entryX=0.5;entryY=1;entryDx=0;entryDy=0;exitX=0.5;exitY=0;exitDx=0;exitDy=0;" edge="1" parent="1" source="KaYgRvA0Nl-acDAz1plO-4" target="KaYgRvA0Nl-acDAz1plO-3">
          <mxGeometry width="50" height="50" relative="1" as="geometry">
            <mxPoint x="510" y="1680" as="sourcePoint" />
            <mxPoint x="560" y="1630" as="targetPoint" />
          </mxGeometry>
        </mxCell>
        <mxCell id="KaYgRvA0Nl-acDAz1plO-17" value="" style="endArrow=none;html=1;rounded=0;entryX=0.5;entryY=1;entryDx=0;entryDy=0;exitX=0.5;exitY=0;exitDx=0;exitDy=0;" edge="1" parent="1" source="KaYgRvA0Nl-acDAz1plO-7" target="KaYgRvA0Nl-acDAz1plO-2">
          <mxGeometry width="50" height="50" relative="1" as="geometry">
            <mxPoint x="510" y="1680" as="sourcePoint" />
            <mxPoint x="560" y="1630" as="targetPoint" />
          </mxGeometry>
        </mxCell>
        <mxCell id="KaYgRvA0Nl-acDAz1plO-18" value="" style="endArrow=none;html=1;rounded=0;entryX=0.5;entryY=1;entryDx=0;entryDy=0;exitX=0.5;exitY=0;exitDx=0;exitDy=0;" edge="1" parent="1" source="KaYgRvA0Nl-acDAz1plO-8" target="KaYgRvA0Nl-acDAz1plO-2">
          <mxGeometry width="50" height="50" relative="1" as="geometry">
            <mxPoint x="510" y="1680" as="sourcePoint" />
            <mxPoint x="560" y="1630" as="targetPoint" />
          </mxGeometry>
        </mxCell>
        <mxCell id="KaYgRvA0Nl-acDAz1plO-19" value="" style="endArrow=none;html=1;rounded=0;entryX=0.5;entryY=1;entryDx=0;entryDy=0;exitX=0.5;exitY=0;exitDx=0;exitDy=0;" edge="1" parent="1" source="KaYgRvA0Nl-acDAz1plO-9" target="KaYgRvA0Nl-acDAz1plO-2">
          <mxGeometry width="50" height="50" relative="1" as="geometry">
            <mxPoint x="510" y="1680" as="sourcePoint" />
            <mxPoint x="560" y="1630" as="targetPoint" />
          </mxGeometry>
        </mxCell>
        <mxCell id="KaYgRvA0Nl-acDAz1plO-20" value="" style="endArrow=none;html=1;rounded=0;entryX=0.5;entryY=1;entryDx=0;entryDy=0;exitX=0.5;exitY=0;exitDx=0;exitDy=0;" edge="1" parent="1" source="KaYgRvA0Nl-acDAz1plO-10" target="KaYgRvA0Nl-acDAz1plO-2">
          <mxGeometry width="50" height="50" relative="1" as="geometry">
            <mxPoint x="510" y="1680" as="sourcePoint" />
            <mxPoint x="560" y="1630" as="targetPoint" />
          </mxGeometry>
        </mxCell>
        <mxCell id="KaYgRvA0Nl-acDAz1plO-21" value="Vizsgajegy" style="ellipse;whiteSpace=wrap;html=1;" vertex="1" parent="1">
          <mxGeometry x="1203.5" y="1610" width="90" height="40" as="geometry" />
        </mxCell>
        <mxCell id="KaYgRvA0Nl-acDAz1plO-22" value="" style="endArrow=none;html=1;rounded=0;entryX=0.5;entryY=1;entryDx=0;entryDy=0;exitX=0.5;exitY=0;exitDx=0;exitDy=0;" edge="1" parent="1" source="KaYgRvA0Nl-acDAz1plO-11">
          <mxGeometry width="50" height="50" relative="1" as="geometry">
            <mxPoint x="940" y="1620" as="sourcePoint" />
            <mxPoint x="1103" y="1580" as="targetPoint" />
          </mxGeometry>
        </mxCell>
        <mxCell id="KaYgRvA0Nl-acDAz1plO-23" value="" style="endArrow=none;html=1;rounded=0;entryX=0.5;entryY=1;entryDx=0;entryDy=0;exitX=0.5;exitY=0;exitDx=0;exitDy=0;" edge="1" parent="1" source="KaYgRvA0Nl-acDAz1plO-12">
          <mxGeometry width="50" height="50" relative="1" as="geometry">
            <mxPoint x="933" y="1630" as="sourcePoint" />
            <mxPoint x="1103" y="1580" as="targetPoint" />
          </mxGeometry>
        </mxCell>
        <mxCell id="KaYgRvA0Nl-acDAz1plO-24" value="" style="endArrow=none;html=1;rounded=0;entryX=0.5;entryY=1;entryDx=0;entryDy=0;exitX=0.5;exitY=0;exitDx=0;exitDy=0;" edge="1" parent="1" source="KaYgRvA0Nl-acDAz1plO-13">
          <mxGeometry width="50" height="50" relative="1" as="geometry">
            <mxPoint x="933" y="1630" as="sourcePoint" />
            <mxPoint x="1103" y="1580" as="targetPoint" />
          </mxGeometry>
        </mxCell>
        <mxCell id="KaYgRvA0Nl-acDAz1plO-25" value="" style="endArrow=none;html=1;rounded=0;entryX=0.5;entryY=1;entryDx=0;entryDy=0;exitX=0.5;exitY=0;exitDx=0;exitDy=0;" edge="1" parent="1" source="KaYgRvA0Nl-acDAz1plO-21">
          <mxGeometry width="50" height="50" relative="1" as="geometry">
            <mxPoint x="933" y="1630" as="sourcePoint" />
            <mxPoint x="1103" y="1580" as="targetPoint" />
          </mxGeometry>
        </mxCell>
        <mxCell id="KaYgRvA0Nl-acDAz1plO-26" value="&lt;u&gt;&lt;b&gt;neptunkód PK&lt;/b&gt;&lt;/u&gt;" style="ellipse;whiteSpace=wrap;html=1;" vertex="1" parent="1">
          <mxGeometry x="1345" y="1610" width="90" height="40" as="geometry" />
        </mxCell>
        <mxCell id="KaYgRvA0Nl-acDAz1plO-27" value="név" style="ellipse;whiteSpace=wrap;html=1;" vertex="1" parent="1">
          <mxGeometry x="1470" y="1610" width="90" height="40" as="geometry" />
        </mxCell>
        <mxCell id="KaYgRvA0Nl-acDAz1plO-28" value="szül.dátum" style="ellipse;whiteSpace=wrap;html=1;" vertex="1" parent="1">
          <mxGeometry x="1600" y="1610" width="90" height="40" as="geometry" />
        </mxCell>
        <mxCell id="KaYgRvA0Nl-acDAz1plO-29" value="irsz" style="ellipse;whiteSpace=wrap;html=1;" vertex="1" parent="1">
          <mxGeometry x="1730" y="1610" width="90" height="40" as="geometry" />
        </mxCell>
        <mxCell id="KaYgRvA0Nl-acDAz1plO-30" value="" style="endArrow=none;html=1;rounded=0;entryX=0.5;entryY=1;entryDx=0;entryDy=0;exitX=0.5;exitY=0;exitDx=0;exitDy=0;" edge="1" parent="1" source="KaYgRvA0Nl-acDAz1plO-26" target="KaYgRvA0Nl-acDAz1plO-1">
          <mxGeometry width="50" height="50" relative="1" as="geometry">
            <mxPoint x="870" y="1650" as="sourcePoint" />
            <mxPoint x="920" y="1600" as="targetPoint" />
          </mxGeometry>
        </mxCell>
        <mxCell id="KaYgRvA0Nl-acDAz1plO-31" value="" style="endArrow=none;html=1;rounded=0;entryX=0.5;entryY=1;entryDx=0;entryDy=0;exitX=0.5;exitY=0;exitDx=0;exitDy=0;" edge="1" parent="1" source="KaYgRvA0Nl-acDAz1plO-27" target="KaYgRvA0Nl-acDAz1plO-1">
          <mxGeometry width="50" height="50" relative="1" as="geometry">
            <mxPoint x="870" y="1650" as="sourcePoint" />
            <mxPoint x="920" y="1600" as="targetPoint" />
          </mxGeometry>
        </mxCell>
        <mxCell id="KaYgRvA0Nl-acDAz1plO-32" value="" style="endArrow=none;html=1;rounded=0;entryX=0.5;entryY=1;entryDx=0;entryDy=0;exitX=0.5;exitY=0;exitDx=0;exitDy=0;" edge="1" parent="1" source="KaYgRvA0Nl-acDAz1plO-28" target="KaYgRvA0Nl-acDAz1plO-1">
          <mxGeometry width="50" height="50" relative="1" as="geometry">
            <mxPoint x="870" y="1650" as="sourcePoint" />
            <mxPoint x="920" y="1600" as="targetPoint" />
          </mxGeometry>
        </mxCell>
        <mxCell id="KaYgRvA0Nl-acDAz1plO-33" value="" style="endArrow=none;html=1;rounded=0;entryX=0.5;entryY=1;entryDx=0;entryDy=0;exitX=0.5;exitY=0;exitDx=0;exitDy=0;" edge="1" parent="1" source="KaYgRvA0Nl-acDAz1plO-29" target="KaYgRvA0Nl-acDAz1plO-1">
          <mxGeometry width="50" height="50" relative="1" as="geometry">
            <mxPoint x="1060" y="1640" as="sourcePoint" />
            <mxPoint x="1110" y="1590" as="targetPoint" />
          </mxGeometry>
        </mxCell>
        <mxCell id="KaYgRvA0Nl-acDAz1plO-34" value="tankör" style="ellipse;whiteSpace=wrap;html=1;" vertex="1" parent="1">
          <mxGeometry x="1600" y="1420" width="90" height="40" as="geometry" />
        </mxCell>
        <mxCell id="KaYgRvA0Nl-acDAz1plO-35" value="" style="endArrow=none;html=1;rounded=0;entryX=0.5;entryY=1;entryDx=0;entryDy=0;exitX=0.5;exitY=0;exitDx=0;exitDy=0;" edge="1" parent="1" source="KaYgRvA0Nl-acDAz1plO-1" target="KaYgRvA0Nl-acDAz1plO-34">
          <mxGeometry width="50" height="50" relative="1" as="geometry">
            <mxPoint x="1210" y="1270" as="sourcePoint" />
            <mxPoint x="1260" y="1220" as="targetPoint" />
          </mxGeometry>
        </mxCell>
        <mxCell id="KaYgRvA0Nl-acDAz1plO-36" value="város" style="ellipse;whiteSpace=wrap;html=1;" vertex="1" parent="1">
          <mxGeometry x="1470" y="1420" width="90" height="40" as="geometry" />
        </mxCell>
        <mxCell id="KaYgRvA0Nl-acDAz1plO-37" value="" style="endArrow=none;html=1;rounded=0;entryX=0.5;entryY=1;entryDx=0;entryDy=0;exitX=0.5;exitY=0;exitDx=0;exitDy=0;" edge="1" parent="1" source="KaYgRvA0Nl-acDAz1plO-1" target="KaYgRvA0Nl-acDAz1plO-36">
          <mxGeometry width="50" height="50" relative="1" as="geometry">
            <mxPoint x="1210" y="1270" as="sourcePoint" />
            <mxPoint x="1260" y="1220" as="targetPoint" />
          </mxGeometry>
        </mxCell>
        <mxCell id="KaYgRvA0Nl-acDAz1plO-38" value="házszám" style="ellipse;whiteSpace=wrap;html=1;" vertex="1" parent="1">
          <mxGeometry x="1730" y="1420" width="90" height="40" as="geometry" />
        </mxCell>
        <mxCell id="KaYgRvA0Nl-acDAz1plO-39" value="utca" style="ellipse;whiteSpace=wrap;html=1;" vertex="1" parent="1">
          <mxGeometry x="1345" y="1420" width="90" height="40" as="geometry" />
        </mxCell>
        <mxCell id="KaYgRvA0Nl-acDAz1plO-40" value="" style="endArrow=none;html=1;rounded=0;entryX=0.5;entryY=1;entryDx=0;entryDy=0;exitX=0.5;exitY=0;exitDx=0;exitDy=0;" edge="1" parent="1" source="KaYgRvA0Nl-acDAz1plO-1" target="KaYgRvA0Nl-acDAz1plO-39">
          <mxGeometry width="50" height="50" relative="1" as="geometry">
            <mxPoint x="1515" y="1530" as="sourcePoint" />
            <mxPoint x="1400" y="1320" as="targetPoint" />
          </mxGeometry>
        </mxCell>
        <mxCell id="KaYgRvA0Nl-acDAz1plO-41" value="" style="endArrow=none;html=1;rounded=0;entryX=0.5;entryY=1;entryDx=0;entryDy=0;exitX=0.5;exitY=0;exitDx=0;exitDy=0;" edge="1" parent="1" source="KaYgRvA0Nl-acDAz1plO-1" target="KaYgRvA0Nl-acDAz1plO-38">
          <mxGeometry width="50" height="50" relative="1" as="geometry">
            <mxPoint x="1210" y="1270" as="sourcePoint" />
            <mxPoint x="1260" y="1220" as="targetPoint" />
          </mxGeometry>
        </mxCell>
        <mxCell id="KaYgRvA0Nl-acDAz1plO-42" value="O-T" style="rhombus;whiteSpace=wrap;html=1;" vertex="1" parent="1">
          <mxGeometry x="440" y="1500" width="80" height="80" as="geometry" />
        </mxCell>
        <mxCell id="KaYgRvA0Nl-acDAz1plO-43" value="" style="endArrow=classic;html=1;rounded=0;entryX=1;entryY=0.5;entryDx=0;entryDy=0;exitX=0;exitY=0.5;exitDx=0;exitDy=0;" edge="1" parent="1" source="KaYgRvA0Nl-acDAz1plO-42" target="KaYgRvA0Nl-acDAz1plO-3">
          <mxGeometry width="50" height="50" relative="1" as="geometry">
            <mxPoint x="690" y="1470" as="sourcePoint" />
            <mxPoint x="680" y="1360" as="targetPoint" />
          </mxGeometry>
        </mxCell>
        <mxCell id="KaYgRvA0Nl-acDAz1plO-44" value="" style="endArrow=classic;html=1;rounded=0;entryX=0;entryY=0.5;entryDx=0;entryDy=0;exitX=1;exitY=0.5;exitDx=0;exitDy=0;" edge="1" parent="1" source="KaYgRvA0Nl-acDAz1plO-42" target="KaYgRvA0Nl-acDAz1plO-2">
          <mxGeometry width="50" height="50" relative="1" as="geometry">
            <mxPoint x="530" y="1510" as="sourcePoint" />
            <mxPoint x="580" y="1460" as="targetPoint" />
          </mxGeometry>
        </mxCell>
        <mxCell id="KaYgRvA0Nl-acDAz1plO-45" value="" style="endArrow=classic;html=1;rounded=0;exitX=1;exitY=0.5;exitDx=0;exitDy=0;" edge="1" parent="1" source="KaYgRvA0Nl-acDAz1plO-42">
          <mxGeometry width="50" height="50" relative="1" as="geometry">
            <mxPoint x="640" y="1420" as="sourcePoint" />
            <mxPoint x="580" y="1540" as="targetPoint" />
          </mxGeometry>
        </mxCell>
        <mxCell id="KaYgRvA0Nl-acDAz1plO-46" value="Hallgat" style="rhombus;whiteSpace=wrap;html=1;" vertex="1" parent="1">
          <mxGeometry x="1063" y="1500" width="80" height="80" as="geometry" />
        </mxCell>
        <mxCell id="KaYgRvA0Nl-acDAz1plO-47" value="" style="endArrow=classic;startArrow=classic;html=1;rounded=0;entryX=0;entryY=0.5;entryDx=0;entryDy=0;exitX=1;exitY=0.5;exitDx=0;exitDy=0;" edge="1" parent="1" source="KaYgRvA0Nl-acDAz1plO-2" target="KaYgRvA0Nl-acDAz1plO-46">
          <mxGeometry width="50" height="50" relative="1" as="geometry">
            <mxPoint x="830" y="1565" as="sourcePoint" />
            <mxPoint x="880" y="1515" as="targetPoint" />
          </mxGeometry>
        </mxCell>
        <mxCell id="KaYgRvA0Nl-acDAz1plO-48" value="" style="endArrow=classic;startArrow=classic;html=1;rounded=0;" edge="1" parent="1">
          <mxGeometry width="50" height="50" relative="1" as="geometry">
            <mxPoint x="730" y="1540" as="sourcePoint" />
            <mxPoint x="1050" y="1540" as="targetPoint" />
          </mxGeometry>
        </mxCell>
        <mxCell id="KaYgRvA0Nl-acDAz1plO-49" value="" style="endArrow=classic;startArrow=classic;html=1;rounded=0;entryX=0;entryY=0.5;entryDx=0;entryDy=0;exitX=1;exitY=0.5;exitDx=0;exitDy=0;" edge="1" parent="1" source="KaYgRvA0Nl-acDAz1plO-46" target="KaYgRvA0Nl-acDAz1plO-1">
          <mxGeometry width="50" height="50" relative="1" as="geometry">
            <mxPoint x="870" y="1730" as="sourcePoint" />
            <mxPoint x="920" y="1680" as="targetPoint" />
          </mxGeometry>
        </mxCell>
        <mxCell id="KaYgRvA0Nl-acDAz1plO-50" value="" style="endArrow=classic;startArrow=classic;html=1;rounded=0;" edge="1" parent="1">
          <mxGeometry width="50" height="50" relative="1" as="geometry">
            <mxPoint x="1150" y="1540" as="sourcePoint" />
            <mxPoint x="1530" y="1540" as="targetPoint" />
          </mxGeometry>
        </mxCell>
      </root>
    </mxGraphModel>
  </diagram>
</mxfile>
